<svg width="28" height="27" viewBox="0 0 28 27" fill="none" xmlns="http://www.w3.org/2000/svg">
<path d="M20.8382 7.11183C20.3274 6.60083 19.721 6.19547 19.0535 5.91891C18.3861 5.64235 17.6707 5.5 16.9482 5.5C16.2257 5.5 15.5103 5.64235 14.8428 5.91891C14.1754 6.19547 13.5689 6.60083 13.0582 7.11183L11.9982 8.17183L10.9382 7.11183C9.90647 6.08013 8.5072 5.50053 7.04817 5.50053C5.58913 5.50053 4.18986 6.08013 3.15817 7.11183C2.12647 8.14352 1.54688 9.54279 1.54688 11.0018C1.54687 12.4609 2.12647 13.8601 3.15817 14.8918L4.21817 15.9518L11.9982 23.7318L19.7782 15.9518L20.8382 14.8918C21.3492 14.3811 21.7545 13.7746 22.0311 13.1072C22.3076 12.4397 22.45 11.7243 22.45 11.0018C22.45 10.2793 22.3076 9.56393 22.0311 8.89647C21.7545 8.22901 21.3492 7.62258 20.8382 7.11183Z" stroke="black" stroke-width="2" stroke-linecap="round" stroke-linejoin="round"/>
<rect x="16.5" y="1" width="11" height="11" rx="5.5" fill="black"/>
<rect x="16.5" y="1" width="11" height="11" rx="5.5" stroke="white"/>
<path d="M22.0013 9.5C21.5803 9.4981 21.2205 9.37962 20.9221 9.14455C20.6236 8.90948 20.3953 8.5673 20.2372 8.11801C20.0791 7.66872 20 7.12749 20 6.49431C20 5.86303 20.0791 5.3237 20.2372 4.8763C20.3971 4.42891 20.6262 4.08768 20.9247 3.85261C21.225 3.61754 21.5838 3.5 22.0013 3.5C22.4188 3.5 22.7768 3.61848 23.0753 3.85545C23.3738 4.09052 23.602 4.43175 23.7602 4.87915C23.9201 5.32464 24 5.86303 24 6.49431C24 7.12938 23.9209 7.67156 23.7628 8.12085C23.6047 8.56825 23.3764 8.91043 23.0779 9.14739C22.7795 9.38246 22.4206 9.5 22.0013 9.5ZM22.0013 8.74076C22.3709 8.74076 22.6596 8.54834 22.8674 8.16351C23.0771 7.77867 23.1819 7.22228 23.1819 6.49431C23.1819 6.0109 23.1339 5.60237 23.038 5.26872C22.9438 4.93318 22.8079 4.67915 22.6302 4.50664C22.4544 4.33223 22.2447 4.24502 22.0013 4.24502C21.6336 4.24502 21.3449 4.43839 21.1352 4.82512C20.9256 5.21185 20.8199 5.76825 20.8181 6.49431C20.8181 6.97962 20.8652 7.39005 20.9594 7.72559C21.0553 8.05924 21.1912 8.31232 21.3671 8.48483C21.543 8.65545 21.7544 8.74076 22.0013 8.74076Z" fill="white"/>
</svg>
