<svg width="27" height="27" viewBox="0 0 27 27" fill="none" xmlns="http://www.w3.org/2000/svg">
<path fill-rule="evenodd" clip-rule="evenodd" d="M15.9334 23.6249L20.9329 22.5134C21.8486 22.3109 22.5 21.4987 22.5 20.5615V6.48666C22.5 5.54953 21.8486 4.73728 20.934 4.53478L15.9345 3.42328C14.6846 3.14541 13.5 4.09603 13.5 5.37628V21.673C13.5 22.9522 14.6846 23.9028 15.9334 23.6249V23.6249Z" stroke="black" stroke-width="2" stroke-linecap="round" stroke-linejoin="round"/>
<path d="M16.875 12.3525V14.6025" stroke="black" stroke-width="2" stroke-linecap="round" stroke-linejoin="round"/>
<path d="M4.5 18V20.2973C4.5 21.5404 5.50687 22.5472 6.75 22.5472H10.125" stroke="black" stroke-width="2" stroke-linecap="round" stroke-linejoin="round"/>
<path d="M4.5 9V6.75C4.5 5.50687 5.50687 4.5 6.75 4.5H10.125" stroke="black" stroke-width="2" stroke-linecap="round" stroke-linejoin="round"/>
<path d="M4.5 13.5H10.125" stroke="black" stroke-width="2" stroke-linecap="round" stroke-linejoin="round"/>
<path d="M7.875 15.75L10.125 13.5L7.875 11.25" stroke="black" stroke-width="2" stroke-linecap="round" stroke-linejoin="round"/>
</svg>
