<svg width="27" height="27" viewBox="0 0 27 27" fill="none" xmlns="http://www.w3.org/2000/svg">
<path d="M6 4.5L3 8.5V22.5C3 23.0304 3.21071 23.5391 3.58579 23.9142C3.96086 24.2893 4.46957 24.5 5 24.5H19C19.5304 24.5 20.0391 24.2893 20.4142 23.9142C20.7893 23.5391 21 23.0304 21 22.5V8.5L18 4.5H6Z" stroke="black" stroke-width="2" stroke-linecap="round" stroke-linejoin="round"/>
<path d="M3 8.5H21" stroke="black" stroke-width="2" stroke-linecap="round" stroke-linejoin="round"/>
<path d="M16 12.5C16 13.5609 15.5786 14.5783 14.8284 15.3284C14.0783 16.0786 13.0609 16.5 12 16.5C10.9391 16.5 9.92172 16.0786 9.17157 15.3284C8.42143 14.5783 8 13.5609 8 12.5" stroke="black" stroke-width="2" stroke-linecap="round" stroke-linejoin="round"/>
<rect x="15.5" y="1" width="11" height="11" rx="5.5" fill="black"/>
<rect x="15.5" y="1" width="11" height="11" rx="5.5" stroke="white"/>
<path d="M21.0013 9.5C20.5803 9.4981 20.2205 9.37962 19.9221 9.14455C19.6236 8.90948 19.3953 8.5673 19.2372 8.11801C19.0791 7.66872 19 7.12749 19 6.49431C19 5.86303 19.0791 5.3237 19.2372 4.8763C19.3971 4.42891 19.6262 4.08768 19.9247 3.85261C20.225 3.61754 20.5838 3.5 21.0013 3.5C21.4188 3.5 21.7768 3.61848 22.0753 3.85545C22.3738 4.09052 22.602 4.43175 22.7602 4.87915C22.9201 5.32464 23 5.86303 23 6.49431C23 7.12938 22.9209 7.67156 22.7628 8.12085C22.6047 8.56825 22.3764 8.91043 22.0779 9.14739C21.7795 9.38246 21.4206 9.5 21.0013 9.5ZM21.0013 8.74076C21.3709 8.74076 21.6596 8.54834 21.8674 8.16351C22.0771 7.77867 22.1819 7.22228 22.1819 6.49431C22.1819 6.0109 22.1339 5.60237 22.038 5.26872C21.9438 4.93318 21.8079 4.67915 21.6302 4.50664C21.4544 4.33223 21.2447 4.24502 21.0013 4.24502C20.6336 4.24502 20.3449 4.43839 20.1352 4.82512C19.9256 5.21185 19.8199 5.76825 19.8181 6.49431C19.8181 6.97962 19.8652 7.39005 19.9594 7.72559C20.0553 8.05924 20.1912 8.31232 20.3671 8.48483C20.543 8.65545 20.7544 8.74076 21.0013 8.74076Z" fill="white"/>
</svg>
