<svg width="24" height="25" viewBox="0 0 24 25" fill="none" xmlns="http://www.w3.org/2000/svg">
<g clip-path="url(#clip0_1_83)">
<path d="M6.375 21.6875V23.5625" stroke="black" stroke-width="2" stroke-miterlimit="10" stroke-linecap="round" stroke-linejoin="round"/>
<path d="M17.625 21.6875V23.5625" stroke="black" stroke-width="2" stroke-miterlimit="10" stroke-linecap="round" stroke-linejoin="round"/>
<path d="M9.1875 5.9375C9.1875 6.97302 10.027 7.8125 11.0625 7.8125H12.9375C13.973 7.8125 14.8125 6.97302 14.8125 5.9375" stroke="black" stroke-width="2" stroke-miterlimit="10" stroke-linecap="round" stroke-linejoin="round"/>
<path d="M9.1875 15.3125C9.1875 16.348 10.027 17.1875 11.0625 17.1875H12.9375C13.973 17.1875 14.8125 16.348 14.8125 15.3125" stroke="black" stroke-width="2" stroke-miterlimit="10" stroke-linecap="round" stroke-linejoin="round"/>
<path d="M2.625 11.5625H21.375V5.1875C21.375 3.11642 19.6961 1.4375 17.625 1.4375H6.375C4.30392 1.4375 2.625 3.11642 2.625 5.1875V17.9375C2.625 20.0086 4.30392 21.6875 6.375 21.6875H17.625C19.6961 21.6875 21.375 20.0086 21.375 17.9375V15.3125" stroke="black" stroke-width="2" stroke-miterlimit="10" stroke-linecap="round" stroke-linejoin="round"/>
</g>
<defs>
<clipPath id="clip0_1_83">
<rect width="24" height="24" fill="white" transform="translate(0 0.5)"/>
</clipPath>
</defs>
</svg>
